<svg width="32" height="32" viewBox="0 0 32 32" fill="none" xmlns="http://www.w3.org/2000/svg">
  <rect width="32" height="32" rx="8" fill="#0C2340"/>
  <path d="M16 8C11.582 8 8 11.582 8 16C8 18.326 9.156 20.399 11 21.517L10 24.667L13.333 23.333C14.15 23.554 15.024 23.667 16 23.667C20.418 23.667 24 20.085 24 15.667C24 11.249 20.418 8 16 8ZM16 22C15.146 22 14.333 21.901 13.573 21.715L11.334 22.466L11.999 20.416C10.436 19.503 9.333 17.843 9.333 16C9.333 12.318 12.324 9.333 16 9.333C19.676 9.333 22.667 12.318 22.667 16C22.667 19.682 19.676 22 16 22Z" fill="white"/>
</svg> 