<svg width="48" height="40" viewBox="0 0 48 40" fill="none" xmlns="http://www.w3.org/2000/svg">
  <rect width="48" height="40" rx="12" fill="#0C2340"/>
  <path d="M24 12C17.373 12 12 16.477 12 22C12 24.991 13.734 27.669 16.5 29.276L15 34L19.999 31.999C21.225 32.331 22.536 32.5 24 32.5C30.627 32.5 36 28.023 36 22.5C36 16.977 30.627 12 24 12ZM24 30.5C22.719 30.5 21.5 30.351 20.36 30.073L17.001 31.199L17.999 28.124C15.654 26.755 14 24.515 14 22C14 17.582 18.486 14 24 14C29.514 14 34 17.582 34 22C34 26.418 29.514 30 24 30Z" fill="white"/>
</svg> 