<svg xmlns="http://www.w3.org/2000/svg" viewBox="0 0 24 24" fill="currentColor">
  <path d="M22 14H21C21 10.13 17.87 7 14 7H13V5.73C13.6 5.39 14 4.74 14 4C14 2.9 13.1 2 12 2S10 2.9 10 4C10 4.74 10.4 5.39 11 5.73V7H10C6.13 7 3 10.13 3 14H2C1.45 14 1 14.45 1 15V18C1 18.55 1.45 19 2 19H3V20C3 21.1 3.9 22 5 22H19C20.1 22 21 21.1 21 20V19H22C22.55 19 23 18.55 23 18V15C23 14.45 22.55 14 22 14M8.5 13.5C7.67 13.5 7 12.83 7 12S7.67 10.5 8.5 10.5 10 11.17 10 12 9.33 13.5 8.5 13.5M15.5 13.5C14.67 13.5 14 12.83 14 12S14.67 10.5 15.5 10.5 17 11.17 17 12 16.33 13.5 15.5 13.5M12 17.5C9.67 17.5 7.69 16.04 6.89 14H17.11C16.31 16.04 14.33 17.5 12 17.5Z"/>
</svg> 